<svg xmlns="http://www.w3.org/2000/svg" version="1.1" xmlns:xlink="http://www.w3.org/1999/xlink" xmlns:svgjs="http://svgjs.dev/svgjs" width="2000" height="1247" viewBox="0 0 2000 1247"><g transform="matrix(1,0,0,1,-1.2121212121212466,0.504858299595071)"><svg viewBox="0 0 396 247" data-background-color="#ffffff" preserveAspectRatio="xMidYMid meet" height="1247" width="2000" xmlns="http://www.w3.org/2000/svg" xmlns:xlink="http://www.w3.org/1999/xlink"><g id="tight-bounds" transform="matrix(1,0,0,1,0.2400000000000091,-0.09999999999999432)"><svg viewBox="0 0 395.52 247.2" height="247.2" width="395.52"><g><svg></svg></g><g><svg viewBox="0 0 395.52 247.2" height="247.2" width="395.52"><g transform="matrix(1,0,0,1,145.96012814371255,47.215199999999996)"><svg viewBox="0 0 103.59974371257486 152.7696" height="152.7696" width="103.59974371257486"><g><svg viewBox="0 0 103.59974371257486 152.7696" height="152.7696" width="103.59974371257486"><g><svg viewBox="0 0 103.59974371257486 152.7696" height="152.7696" width="103.59974371257486"><g><svg viewBox="0 0 103.59974371257486 152.7696" height="152.7696" width="103.59974371257486"><g id="textblocktransform"><svg viewBox="0 0 103.59974371257486 152.7696" height="152.7696" width="103.59974371257486" id="textblock"><g><svg viewBox="0 0 103.59974371257486 152.7696" height="152.7696" width="103.59974371257486"><g transform="matrix(1,0,0,1,0,0)"><svg width="103.59974371257486" viewBox="3.8 -33.4 22.65 33.4" height="152.7696" data-palette-color="#14121f"><path d="M26.45 0L3.8 0 3.8-33.4 26.45-33.4 26.45-29.35 8.5-29.35 8.5-19.2 21.75-19.2 21.75-15.15 8.5-15.15 8.5-4.05 26.45-4.05 26.45 0Z" opacity="1" transform="matrix(1,0,0,1,0,0)" fill="#14121f" class="wordmark-text-0" data-fill-palette-color="primary" id="text-0"></path></svg></g></svg></g></svg></g></svg></g></svg></g></svg></g></svg></g><path d="M67.259 41.215L67.259 0 314.459 0 314.459 247.2 67.259 247.2 67.259 205.985 81.035 205.985 81.035 233.423 300.682 233.423 300.682 13.777 81.035 13.777 81.035 41.215Z" fill="#f1c40f" stroke="transparent" data-fill-palette-color="tertiary"></path></svg></g><defs></defs></svg><rect width="395.52" height="247.2" fill="none" stroke="none" visibility="hidden"></rect></g></svg></g></svg>